<?xml version="1.0" encoding="UTF-8"?>
<svg id="Layer_1" data-name="Layer 1" xmlns="http://www.w3.org/2000/svg" viewBox="0 0 158.22 84.62">
  <defs>
    <style>
      .cls-1 {
        fill: #fff;
      }
    </style>
  </defs>
  <g>
    <path class="cls-1" d="M75.26,46.9c.17,.76,.41,1.36,.7,1.8,.29,.44,.68,.76,1.14,.98,.47,.21,1.07,.32,1.81,.32,1.01,0,1.79-.26,2.33-.79,.54-.52,.81-1.29,.81-2.3,0-.65-.11-1.19-.34-1.63-.23-.44-.59-.85-1.1-1.24-.51-.39-1.29-.84-2.34-1.36-1.01-.5-1.81-.99-2.4-1.47-.59-.48-1.03-1-1.32-1.56-.29-.56-.44-1.17-.44-1.83,0-.96,.23-1.8,.68-2.51,.46-.71,1.12-1.26,2-1.65,.88-.39,1.89-.58,3.02-.58,.66,0,1.3,.03,1.93,.1,.63,.07,1.41,.22,2.36,.47v3.49h-1.29c-.2-.76-.45-1.35-.75-1.77-.3-.42-.66-.72-1.06-.88-.41-.17-.94-.25-1.59-.25-.56,0-1.07,.1-1.51,.31-.45,.21-.8,.52-1.06,.94-.26,.42-.39,.92-.39,1.49,0,.61,.11,1.13,.33,1.55,.22,.42,.56,.81,1.03,1.18,.47,.36,1.16,.77,2.08,1.21,1.11,.55,1.97,1.06,2.58,1.54,.61,.47,1.09,1.01,1.43,1.62,.34,.61,.51,1.31,.51,2.12,0,.9-.14,1.67-.43,2.29-.29,.62-.68,1.13-1.19,1.52-.51,.39-1.11,.68-1.82,.85-.7,.18-1.48,.26-2.32,.26-1.36,0-2.93-.23-4.7-.68v-3.54h1.3Z"/>
    <path class="cls-1" d="M87.03,33.49h14.05v4.5h-1.27c-.19-.74-.38-1.33-.57-1.76-.19-.43-.38-.76-.59-.98-.21-.22-.43-.38-.67-.48-.24-.09-.59-.14-1.07-.14h-1.65v13.23c0,.51,.03,.91,.08,1.21,.06,.3,.14,.54,.26,.72,.12,.18,.27,.31,.47,.41,.2,.1,.51,.2,.94,.29v.63h-5.93v-.63c.26-.06,.49-.12,.69-.19,.2-.07,.36-.15,.49-.25,.13-.1,.23-.23,.31-.38s.15-.37,.2-.63c.05-.27,.07-.66,.07-1.18v-13.23h-1.64c-.41,0-.74,.04-1.01,.12-.26,.08-.51,.24-.73,.48-.23,.25-.43,.59-.62,1.05-.19,.45-.36,1.02-.53,1.71h-1.28v-4.5Z"/>
    <path class="cls-1" d="M108.27,47.9c0,.58,.02,1,.06,1.27,.04,.27,.1,.48,.2,.63,.09,.16,.23,.28,.4,.39,.18,.1,.47,.21,.86,.31v.63h-5.48v-.63c.54-.14,.9-.29,1.08-.46,.18-.17,.3-.41,.36-.72,.06-.31,.08-.78,.08-1.42v-11.17c0-.59-.02-1.03-.06-1.3-.04-.27-.11-.48-.21-.63-.1-.15-.23-.27-.4-.36-.16-.09-.45-.19-.84-.3v-.63h5.48v.63c-.38,.09-.66,.19-.82,.28-.17,.09-.3,.21-.4,.36-.1,.14-.17,.36-.22,.64-.05,.28-.07,.72-.07,1.32v11.17Z"/>
    <path class="cls-1" d="M117.68,49.94h3.4c.37,0,.68-.02,.94-.06,.25-.04,.47-.11,.64-.2,.18-.09,.34-.22,.48-.37,.14-.16,.28-.37,.41-.63,.13-.26,.25-.58,.37-.98,.12-.39,.26-.98,.43-1.76h1.31l-.26,5.19h-11.68v-.63c.54-.14,.9-.29,1.08-.46,.18-.17,.3-.41,.36-.72,.06-.31,.08-.78,.08-1.42v-11.17c0-.59-.02-1.03-.07-1.3-.04-.27-.11-.48-.21-.63-.1-.15-.23-.27-.4-.36-.16-.09-.45-.19-.84-.3v-.63h5.47v.63c-.38,.1-.65,.2-.81,.28-.16,.08-.29,.19-.4,.33-.1,.14-.18,.35-.23,.63-.05,.28-.08,.74-.08,1.36v13.22Z"/>
    <path class="cls-1" d="M140.95,33.49v3.9h-1.27c-.13-.42-.26-.79-.4-1.11-.14-.32-.28-.59-.43-.8-.15-.22-.31-.39-.49-.52-.18-.13-.39-.22-.63-.26-.24-.05-.53-.07-.87-.07h-4.1v6.77h2.78c.38,0,.68-.05,.9-.16s.4-.29,.54-.55c.14-.26,.28-.66,.41-1.21h1.22v4.96h-1.22c-.12-.52-.25-.91-.4-1.17-.15-.26-.32-.45-.53-.56-.2-.11-.51-.17-.92-.17h-2.78v7.45h4.04c.42,0,.77-.04,1.03-.11,.26-.07,.49-.2,.68-.37,.19-.18,.36-.41,.51-.69,.15-.28,.27-.58,.37-.88,.1-.31,.24-.75,.41-1.34h1.29l-.25,4.53h-12.03v-.63c.54-.14,.9-.29,1.08-.46,.18-.17,.3-.41,.36-.72,.06-.31,.09-.78,.09-1.42v-11.17c0-.59-.02-1.03-.07-1.3-.04-.27-.11-.48-.21-.63-.1-.15-.23-.27-.4-.36-.16-.09-.45-.19-.84-.3v-.63h12.14Z"/>
  </g>
  <g>
    <polygon class="cls-1" points="28.28 53.63 17.15 42.5 25.44 34.2 29.45 38.21 25.16 42.5 32.29 49.62 28.28 53.63"/>
    <polygon class="cls-1" points="57.7 50.4 53.7 46.39 58 42.08 50.88 34.96 54.89 30.95 66.02 42.08 57.7 50.4"/>
    <path class="cls-1" d="M41.37,62.55c-2.48,0-4.96-.92-6.93-2.76l-4.2-4.2,4.01-4.01,4.14,4.14c1.7,1.59,4.43,1.55,6.14-.17,1.74-1.74,1.74-4.57,0-6.31l-10.03-10.03c-3.87-4.07-3.79-10.28,.13-14.2,3.86-3.86,10.21-3.94,14.16-.16l4.13,4.13-4.01,4.01-4.09-4.09c-1.69-1.62-4.49-1.58-6.19,.12-1.7,1.7-1.73,4.49-.08,6.23l9.98,9.98c3.95,3.95,3.95,10.38,0,14.33-1.99,1.99-4.58,2.99-7.17,2.99Z"/>
  </g>
</svg>